<?xml version="1.0" encoding="utf-8"?>
<!-- Generator: Adobe Illustrator 23.0.1, SVG Export Plug-In . SVG Version: 6.00 Build 0)  -->
<svg version="1.1" id="Layer_1" xmlns="http://www.w3.org/2000/svg" xmlns:xlink="http://www.w3.org/1999/xlink" x="0px" y="0px"
	 viewBox="0 0 1920 1080" style="enable-background:new 0 0 1920 1080;" xml:space="preserve">
<style type="text/css">
	.st0{fill:none;stroke:#000000;stroke-width:1.3;stroke-linecap:round;stroke-linejoin:round;stroke-miterlimit:10;}
	.st1{fill:none;}
	.st2{fill:none;stroke:#000000;stroke-width:1.3;stroke-linecap:round;stroke-linejoin:round;stroke-miterlimit:2.6131;}
</style>
<g>
	<g>
		<g id="XMLID_344_">
			<g>
				<path class="st0" d="M1053.79,862.68h52.19H1224h52.24c2.14,0,3.91,1.63,3.91,3.72v7.89c0,2.03-1.77,3.71-3.91,3.71h-222.44
					c-2.15,0-3.9-1.68-3.9-3.71v-7.89C1049.9,864.31,1051.65,862.68,1053.79,862.68z"/>
				<polygon class="st0" points="1206.66,799.8 1224,862.68 1105.99,862.68 1123.36,799.8 				"/>
				<path class="st0" d="M1165.01,786.92c4.23,0,7.65-3.26,7.65-7.28s-3.42-7.28-7.65-7.28c-4.22,0-7.65,3.27-7.65,7.28
					S1160.8,786.92,1165.01,786.92z M1002.35,799.8c-11.17,0-20.31-8.76-20.31-19.35v-37.32c0,8.96,7.75,16.35,17.21,16.35h331.53
					c9.46,0,17.22-7.39,17.22-16.35v37.32c0,10.59-9.15,19.35-20.33,19.35h-121.01h-83.3h-35.4H1002.35z"/>
				<path class="st0" d="M1189.02,557.69v5.66c0,3.15-2.72,5.65-5.92,5.65h-44.18c-3.04,0-5.56-2.4-5.56-5.29v-6.01v-19.65v-8.6
					h10.55h34.6h10.53v8.6V557.69z"/>
				<path class="st0" d="M1178.49,520.93v8.5h-34.6v-8.5c0-9.07,7.8-16.45,17.26-16.45
					C1170.69,504.49,1178.49,511.86,1178.49,520.93z"/>
				<path class="st0" d="M1294.58,608.3c-15.67-3.46-34.82,10.69-49.52,34.67c-10.74-5.15-21.23-11.1-31.44-17.87
					C1235.07,607.19,1265.38,599.95,1294.58,608.3z"/>
				<path class="st0" d="M1245.06,642.98c-5.66,9.22-10.64,19.85-14.54,31.52l-42.08-12.78c4.91-14.71,13.8-27.13,25.18-36.61
					C1223.83,631.87,1234.32,637.83,1245.06,642.98z"/>
				<path class="st0" d="M1230.52,674.49c-4.23,12.68-6.75,25.16-7.49,36.51c-11.5-1.68-23.31-2.55-35.5-2.65
					c-4.34-14.76-4.34-30.9,0.9-46.64L1230.52,674.49z"/>
				<path class="st0" d="M1225.07,739.77h-19.89c-8.18-9.11-14.23-19.85-17.64-31.41c12.19,0.1,24,0.97,35.5,2.65
					C1222.23,721.75,1222.98,731.52,1225.07,739.77z"/>
				<path class="st0" d="M1259.23,719.1c-11.77-3.66-23.79-6.37-36.2-8.1c0.74-11.35,3.26-23.83,7.49-36.51l39.62,12.02
					L1259.23,719.1z"/>
				<path class="st0" d="M1317.03,664.77c-0.9,10.64-3.31,22.1-7.22,33.76v0.05l-39.67-12.06l10-29.94
					C1292.12,660.24,1304.42,662.94,1317.03,664.77z"/>
				<path class="st0" d="M1245.06,642.98c11.39,5.45,23.05,9.98,35.08,13.6l-10,29.94l-39.62-12.02
					C1234.42,662.83,1239.4,652.19,1245.06,642.98z"/>
				<path class="st0" d="M1280.14,656.57c-12.03-3.62-23.69-8.15-35.08-13.6c14.7-23.99,33.86-38.14,49.52-34.67
					c0.47,0.11,1.02,0.26,1.55,0.41L1280.14,656.57z"/>
				<path class="st0" d="M1296.13,608.71c16,4.84,23.58,27.5,20.9,56.06c-12.62-1.83-24.91-4.53-36.89-8.19L1296.13,608.71z"/>
				<path class="st0" d="M1327.15,625.47v40.58c-3.38-0.36-6.75-0.77-10.12-1.28c2.67-28.56-4.91-51.22-20.9-56.06
					C1307.99,612.32,1318.42,618.12,1327.15,625.47z"/>
				<path class="st0" d="M1327.15,666.04v37.78l-17.34-5.25v-0.05c3.91-11.66,6.31-23.11,7.22-33.76
					C1320.4,665.28,1323.77,665.68,1327.15,666.04z"/>
				<path class="st0" d="M1327.15,703.82v35.94h-19.48c-4.65-2.54-9.29-4.99-14.01-7.22c6.32-9.73,11.88-21.23,16.15-33.97
					L1327.15,703.82z"/>
				<path class="st0" d="M1309.81,698.57c-4.27,12.73-9.83,24.24-16.15,33.97c-11.28-5.4-22.71-9.88-34.43-13.45l10.91-32.59
					L1309.81,698.57z"/>
				<path class="st0" d="M1252.33,739.77l6.9-20.67c11.72,3.56,23.15,8.04,34.43,13.45c-1.6,2.54-3.31,4.93-5.02,7.22H1252.33z"/>
				<path class="st0" d="M1259.23,719.1l-6.9,20.67h-27.27c-2.09-8.25-2.84-18.02-2.03-28.76
					C1235.44,712.73,1247.46,715.43,1259.23,719.1z"/>
				<path class="st0" d="M1002.29,616.14v-9.47h3.38c2.5,0,4.22,0.1,5.02,0.26c1.17,0.15,2.09,0.66,2.84,1.48
					c0.75,0.76,1.13,1.77,1.13,3c0,0.97-0.28,1.83-0.81,2.54c-0.49,0.76-1.24,1.32-2.2,1.68c-0.9,0.31-2.72,0.51-5.56,0.51H1002.29z
					"/>
				<path class="st0" d="M1048.02,608.1c0.64,0.71,0.96,1.58,0.96,2.7c0,1.02-0.26,1.88-0.75,2.5c-0.48,0.66-1.13,1.12-1.98,1.42
					c-0.8,0.31-2.93,0.41-6.31,0.41h-5.17v-8.45h5.45c2.88,0,4.59,0.06,5.19,0.15C1046.52,607.03,1047.38,607.44,1048.02,608.1z"/>
				<path class="st0" d="M1050.63,634.26h8.41l-4.23-6.47c-1.65-2.59-3.04-4.38-4-5.39c-0.96-1.02-2.2-1.94-3.75-2.81
					c3.05-0.4,5.35-1.42,6.84-3.05c1.55-1.63,2.3-3.66,2.3-6.16c0-1.98-0.49-3.72-1.5-5.25c-1.02-1.52-2.35-2.54-4.07-3.16
					c-1.65-0.56-4.38-0.91-8.12-0.91h-14.82v33.19h7.07v-13.89h1.43c1.61,0,2.78,0.15,3.53,0.41c0.75,0.26,1.5,0.76,2.14,1.38
					c0.64,0.65,1.87,2.29,3.75,4.89L1050.63,634.26z M1205.17,739.77h-203.09v-87.42v-18.08h0.21v-12.47h4.55
					c3.21,0,5.62-0.2,7.33-0.51c1.23-0.25,2.41-0.81,3.63-1.57c1.18-0.82,2.15-1.88,2.95-3.26c0.73-1.38,1.17-3.1,1.17-5.15
					c0-2.64-0.7-4.78-2.03-6.46c-1.33-1.68-2.99-2.75-5.02-3.26c-1.28-0.31-4.06-0.51-8.35-0.51h-4.44v-15.78v-27.6h131.27v6.01
					c0,2.89,2.52,5.29,5.56,5.29h44.18c3.2,0,5.92-2.5,5.92-5.65v-5.66h138.13v67.77c-8.73-7.34-19.16-13.14-31.02-16.76
					c-0.53-0.15-1.08-0.3-1.55-0.41c-29.2-8.35-59.51-1.12-80.96,16.8c-11.38,9.47-20.27,21.89-25.18,36.61
					c-5.24,15.74-5.24,31.88-0.9,46.64C1190.94,719.91,1196.99,730.66,1205.17,739.77z"/>
				<path class="st1" d="M1048.98,610.8c0-1.12-0.32-1.99-0.96-2.7c-0.64-0.66-1.5-1.06-2.62-1.27c-0.6-0.1-2.31-0.15-5.19-0.15
					h-5.45v8.45h5.17c3.38,0,5.51-0.1,6.31-0.41c0.85-0.31,1.5-0.76,1.98-1.42C1048.72,612.68,1048.98,611.82,1048.98,610.8z
					 M1056.2,610.39c0,2.5-0.75,4.53-2.3,6.16c-1.5,1.64-3.79,2.65-6.84,3.05c1.55,0.87,2.78,1.79,3.75,2.81
					c0.96,1.01,2.35,2.8,4,5.39l4.23,6.47h-8.41l-5.02-7.22c-1.88-2.6-3.1-4.23-3.75-4.89c-0.64-0.62-1.39-1.12-2.14-1.38
					c-0.75-0.25-1.92-0.41-3.53-0.41h-1.43v13.89h-7.07v-33.19h14.82c3.74,0,6.47,0.36,8.12,0.91c1.71,0.62,3.05,1.64,4.07,3.16
					C1055.71,606.67,1056.2,608.41,1056.2,610.39z"/>
				<path class="st1" d="M1002.08,601.07h4.44c4.29,0,7.07,0.2,8.35,0.51c2.03,0.51,3.69,1.58,5.02,3.26
					c1.34,1.69,2.03,3.82,2.03,6.46c0,2.04-0.43,3.77-1.17,5.15c-0.81,1.38-1.77,2.45-2.95,3.26c-1.22,0.76-2.4,1.32-3.63,1.57
					c-1.71,0.31-4.12,0.51-7.33,0.51h-4.55v12.47h-0.21h-6.84v-33.19H1002.08z M1002.29,606.67v9.47h3.8c2.84,0,4.66-0.2,5.56-0.51
					c0.96-0.36,1.71-0.92,2.2-1.68c0.53-0.71,0.81-1.57,0.81-2.54c0-1.23-0.37-2.24-1.13-3c-0.75-0.82-1.67-1.33-2.84-1.48
					c-0.81-0.16-2.52-0.26-5.02-0.26H1002.29z"/>
				<path class="st1" d="M976.04,607.03c-0.96-0.26-2.9-0.36-5.71-0.36h-3.16v22h5.19c1.97,0,3.37-0.1,4.23-0.31
					c1.17-0.31,2.12-0.76,2.82-1.38c0.81-0.66,1.39-1.78,1.88-3.21c0.48-1.48,0.7-3.52,0.7-6.11c0-2.59-0.22-4.53-0.7-5.84
					c-0.49-1.43-1.12-2.45-2.03-3.21C978.45,607.85,977.32,607.28,976.04,607.03z M972.88,601.07c2.95,0,5.13,0.2,6.63,0.66
					c2.03,0.51,3.8,1.58,5.24,3.01c1.49,1.52,2.56,3.31,3.31,5.44c0.81,2.09,1.18,4.69,1.18,7.8c0,2.75-0.37,5.14-1.07,7.07
					c-0.92,2.45-2.14,4.38-3.74,5.86c-1.18,1.12-2.89,2.04-4.93,2.64c-1.54,0.46-3.63,0.71-6.2,0.71h-13.26v-33.19H972.88z"/>
				<path class="st1" d="M938.29,606.26c-3.05,0-5.51,0.87-7.32,2.75c-1.82,1.89-2.72,4.64-2.72,8.31c0,3.92,0.96,6.87,2.78,8.85
					c1.81,1.99,4.21,3.01,7.22,3.01c1.43,0,2.94-0.36,4.44-0.87c1.43-0.56,2.73-1.22,3.8-1.99v-4.27h-8.03v-5.55h15.14v13.19
					c-1.5,1.42-3.64,2.6-6.42,3.62c-2.78,1.06-5.62,1.57-8.5,1.57c-3.65,0-6.86-0.71-9.53-2.19c-2.68-1.48-4.7-3.51-6.09-6.31
					c-1.39-2.65-2.03-5.65-2.03-8.81c0-3.46,0.75-6.52,2.3-9.27c1.5-2.65,3.69-4.73,6.63-6.16c2.24-1.12,5.02-1.64,8.34-1.64
					c4.34,0,7.7,0.87,10.17,2.55c2.41,1.73,4.01,4.13,4.65,7.18l-7,1.27c-0.49-1.68-1.39-2.9-2.73-3.87
					C941.99,606.67,940.33,606.26,938.29,606.26z"/>
			</g>
			<g>
				<line class="st2" x1="982.04" y1="651.22" x2="982.04" y2="649.64"/>
				<path class="st2" d="M1123.36,799.8h-35.4h-85.61c-11.17,0-20.31-8.76-20.31-19.35v-37.32"/>
				<path class="st2" d="M1348,743.13v37.32c0,10.59-9.15,19.35-20.33,19.35h-121.01"/>
				<path class="st2" d="M1327.67,538.04c11.17,0,20.33,8.71,20.33,19.34"/>
				<line class="st2" x1="1189.02" y1="538.04" x2="1221.64" y2="538.04"/>
				<line class="st2" x1="1107.64" y1="538.04" x2="1133.35" y2="538.04"/>
				<path class="st2" d="M982.04,557.38c0-10.64,9.14-19.34,20.31-19.34"/>
				<polyline class="st2" points="1105.99,862.68 1123.36,799.8 1206.66,799.8 1224,862.68 				"/>
				<path class="st2" d="M1224,862.68h52.24c2.14,0,3.91,1.63,3.91,3.72v7.89c0,2.03-1.77,3.71-3.91,3.71h-222.44
					c-2.15,0-3.9-1.68-3.9-3.71v-7.89c0-2.09,1.75-3.72,3.9-3.72h52.19H1224z"/>
				<polyline class="st2" points="1205.17,739.77 1002.08,739.77 1002.08,652.35 				"/>
				<polyline class="st2" points="1189.02,557.69 1327.15,557.69 1327.15,625.47 				"/>
				<polyline class="st2" points="1002.08,585.29 1002.08,557.69 1133.35,557.69 				"/>
				<path class="st2" d="M1296.13,608.71c11.86,3.61,22.3,9.42,31.02,16.76v40.58v37.78v35.94h-19.48h-19.03"/>
				<path class="st2" d="M1225.07,739.77h-19.89c-8.18-9.11-14.23-19.85-17.64-31.41c-4.34-14.76-4.34-30.9,0.9-46.64
					c4.91-14.71,13.8-27.13,25.18-36.61c21.45-17.92,51.77-25.15,80.96-16.8"/>
				<path class="st2" d="M1288.64,739.77h-36.31h-27.27c-2.09-8.25-2.84-18.02-2.03-28.76c0.74-11.35,3.26-23.83,7.49-36.51
					c3.9-11.66,8.88-22.3,14.54-31.52c14.7-23.99,33.86-38.14,49.52-34.67c0.47,0.11,1.02,0.26,1.55,0.41
					c16,4.84,23.58,27.5,20.9,56.06c-0.9,10.64-3.31,22.1-7.22,33.76v0.05c-4.27,12.73-9.83,24.24-16.15,33.97
					C1292.06,735.08,1290.35,737.47,1288.64,739.77z"/>
				<polyline class="st2" points="1188.44,661.71 1230.52,674.49 1270.14,686.51 1309.81,698.57 1327.15,703.82 				"/>
				<polyline class="st2" points="1296.13,608.71 1280.14,656.57 1270.14,686.51 1259.23,719.1 1252.33,739.77 				"/>
				<path class="st2" d="M1213.62,625.1c10.21,6.77,20.7,12.73,31.44,17.87c11.39,5.45,23.05,9.98,35.08,13.6
					c11.98,3.66,24.27,6.36,36.89,8.19c3.37,0.51,6.74,0.92,10.12,1.28"/>
				<path class="st2" d="M1187.53,708.35c12.19,0.1,24,0.97,35.5,2.65c12.41,1.73,24.43,4.43,36.2,8.1
					c11.72,3.56,23.15,8.04,34.43,13.45c4.72,2.24,9.36,4.68,14.01,7.22"/>
				<path class="st2" d="M1165.01,772.35c4.23,0,7.65,3.27,7.65,7.28s-3.42,7.28-7.65,7.28c-4.22,0-7.65-3.26-7.65-7.28
					S1160.8,772.35,1165.01,772.35z"/>
				<path class="st2" d="M982.04,586.1v-3.26v-25.46v-2.95c0-9.01,7.75-16.39,17.21-16.39h3.1h105.29"/>
				<path class="st2" d="M1221.64,538.04h106.03h3.1c9.46,0,17.22,7.38,17.22,16.39v2.95v185.74c0,8.96-7.76,16.35-17.22,16.35
					H999.25c-9.46,0-17.21-7.39-17.21-16.35v-91.91"/>
				<line class="st2" x1="1026.68" y1="675.61" x2="1068.01" y2="675.61"/>
				<line class="st2" x1="1073.57" y1="675.61" x2="1082.13" y2="675.61"/>
				<line class="st2" x1="1026.68" y1="689.06" x2="1068.01" y2="689.06"/>
				<line class="st2" x1="1073.57" y1="689.06" x2="1082.13" y2="689.06"/>
				<line class="st2" x1="1026.68" y1="702.5" x2="1068.01" y2="702.5"/>
				<line class="st2" x1="1073.57" y1="702.5" x2="1082.13" y2="702.5"/>
				<line class="st2" x1="1026.68" y1="715.94" x2="1068.01" y2="715.94"/>
				<line class="st2" x1="1073.57" y1="715.94" x2="1082.13" y2="715.94"/>
				<path class="st2" d="M1178.49,529.44h10.53v8.6v19.65v5.66c0,3.15-2.72,5.65-5.92,5.65h-44.18c-3.04,0-5.56-2.4-5.56-5.29v-6.01
					v-19.65v-8.6h10.55"/>
				<path class="st2" d="M1143.9,529.44v-8.5c0-9.07,7.8-16.45,17.26-16.45c9.53,0,17.34,7.38,17.34,16.45v8.5H1143.9z"/>
				<polyline class="st2" points="1152.13,557.74 1161.22,549.24 1170.26,540.74 				"/>
				<polyline class="st2" points="1170.26,557.74 1161.22,549.24 1152.13,540.69 				"/>
			</g>
		</g>
	</g>
</g>
</svg>
