<?xml version="1.0" encoding="utf-8"?>
<!-- Generator: Adobe Illustrator 23.0.1, SVG Export Plug-In . SVG Version: 6.00 Build 0)  -->
<svg version="1.1" id="Layer_1" xmlns="http://www.w3.org/2000/svg" xmlns:xlink="http://www.w3.org/1999/xlink" x="0px" y="0px"
	 viewBox="0 0 1920 1080" style="enable-background:new 0 0 1920 1080;" xml:space="preserve">
<style type="text/css">
	.st0{fill:#FFFFFF;}
</style>
<path class="st0" d="M1291.69,490H951.31c-22.78,0-41.31,18.53-41.31,41.31v252.81c0,22.78,18.53,41.31,41.31,41.31h128.88v38h-8.26
	c-11.03,0-21.4,4.3-29.21,12.1c-7.8,7.81-12.1,18.18-12.1,29.21c0,4.56,3.7,8.26,8.26,8.26h165.23c4.56,0,8.26-3.7,8.26-8.26
	c0-22.78-18.53-41.31-41.31-41.31h-8.26v-38h128.88c22.78,0,41.31-18.53,41.31-41.31V531.31C1333,508.53,1314.47,490,1291.69,490z
	 M951.31,506.52h340.38c13.67,0,24.79,11.12,24.79,24.79v211.5h-38V552.79c0-4.56-3.7-8.26-8.26-8.26h-66.09
	c-4.56,0-8.26,3.7-8.26,8.26v190.02h-41.35c-0.09-8.55-0.31-16.97-0.66-25.14c-1.45-33.65-4.74-56.19-6.45-66.1
	c17.05-12.55,21.7-35.81,11.28-53.89l-28.64-49.6c-1.48-2.56-4.2-4.13-7.16-4.13c-2.95,0-5.68,1.57-7.15,4.13l-28.65,49.6
	c-9.82,17.04-6.34,39.11,9.09,52.14c-1.79,9.88-5.4,33.23-6.96,67.83c-0.37,8.26-0.61,16.69-0.7,25.16h-41.35V618.88
	c0-1.31-0.31-2.5-0.82-3.57c-0.02-0.04-0.04-0.09-0.05-0.13l-33.05-66.09c-1.4-2.8-4.26-4.57-7.39-4.57c-3.13,0-5.99,1.77-7.39,4.57
	l-33.05,66.09c-0.02,0.04-0.03,0.09-0.05,0.13c-0.52,1.07-0.82,2.29-0.82,3.57v123.93h-38v-211.5
	C926.52,517.64,937.64,506.52,951.31,506.52z M1212.38,742.81V561.05h49.57v16.52h-8.26c-4.56,0-8.26,3.7-8.26,8.26
	c0,4.56,3.7,8.26,8.26,8.26h8.26v24.79h-8.26c-4.56,0-8.26,3.7-8.26,8.26c0,4.56,3.7,8.26,8.26,8.26h8.26v24.79h-8.26
	c-4.56,0-8.26,3.7-8.26,8.26s3.7,8.26,8.26,8.26h8.26v33.05h-8.26c-4.56,0-8.26,3.7-8.26,8.26c0,4.56,3.7,8.26,8.26,8.26h8.26v16.52
	H1212.38z M1122.87,659.62c3,0,5.99-0.35,8.91-0.99c1.53,9.83,3.79,27.22,5.12,51.13h-30.75c1.4-23.9,3.76-41.56,5.39-51.72
	C1115.2,659.08,1119.01,659.62,1122.87,659.62z M1122.87,643.1c-18.88,0-31.06-20.55-21.49-37.15l21.49-37.2l21.48,37.2
	C1153.88,622.47,1141.87,643.1,1122.87,643.1z M1105.39,726.29h32.24c0.17,5.43,0.29,10.95,0.35,16.52h-32.96
	C1105.08,737.27,1105.21,731.75,1105.39,726.29z M1014.1,742.81V627.14h16.52v115.66H1014.1z M981.05,742.81V627.14h16.52v115.66
	H981.05z M986.16,610.62l19.68-39.36l19.68,39.36H986.16z M1194.44,896.48h-145.89c1.21-3.44,3.19-6.6,5.85-9.26
	c4.69-4.68,10.91-7.26,17.52-7.26h99.14C1181.84,879.95,1191.03,886.86,1194.44,896.48z M1146.29,863.43h-49.57v-38h49.57V863.43z
	 M1291.69,808.9H951.31c-13.67,0-24.79-11.12-24.79-24.79v-24.78h389.95v24.78C1316.48,797.78,1305.36,808.9,1291.69,808.9z"/>
</svg>
