<?xml version="1.0" encoding="utf-8"?>
<!-- Generator: Adobe Illustrator 23.0.1, SVG Export Plug-In . SVG Version: 6.00 Build 0)  -->
<svg version="1.1" id="Layer_1" xmlns="http://www.w3.org/2000/svg" xmlns:xlink="http://www.w3.org/1999/xlink" x="0px" y="0px"
	 viewBox="0 0 1920 1080" style="enable-background:new 0 0 1920 1080;" xml:space="preserve">
<style type="text/css">
	.st0{fill:#FFFFFF;}
</style>
<path class="st0" d="M1284.07,574.34l-9.51-2.97c-2.38-0.59-4.76-1.19-7.73-1.19c-10.7,0-20.21,7.13-23.78,17.22l-5.35,16.04v-11.88
	v-0.59c0-1.78-1.19-3.56-2.38-4.75l-97.48-94.44c-1.19-1.19-2.97-1.78-4.16-1.78h-190.8c-3.57,0-5.94,2.38-5.94,5.94v18.41h-21.99
	c-3.57,0-5.94,2.38-5.94,5.94v355.77c0,3.56,2.38,5.94,5.94,5.94h288.88c3.57,0,5.94-2.38,5.94-5.94v-18.41h21.99
	c3.57,0,5.94-2.38,5.94-5.94v-80.18l16.64-22.57l0.59-1.78l44.58-141.95C1304.28,592.16,1297.14,578.5,1284.07,574.34z
	 M1139.63,510.19l77.87,74.84h-77.87V510.19z M1197.88,870.12H920.89V526.23h16.05v325.48c0,3.56,2.38,5.94,5.94,5.94h255
	L1197.88,870.12L1197.88,870.12z M1226.41,845.77h-0.59H948.82V501.88h178.92v89.09c0,3.56,2.38,5.94,5.94,5.94h92.73v44.55
	l-27.94,87.9v1.78l1.19,75.43c0,2.38,1.78,4.75,4.16,5.35c2.38,0.59,5.35,0,6.54-2.38l16.05-21.38L1226.41,845.77L1226.41,845.77z
	 M1210.96,788.16l-1.19-49.3l29.72,9.5L1210.96,788.16z M1288.82,601.66l-42.8,136.01l-34.48-11.28l42.8-135.42
	c2.38-6.53,9.51-10.69,16.05-8.31l9.51,2.97C1287.04,587.41,1291.2,595.13,1288.82,601.66z"/>
<path class="st0" d="M989.24,596.91h85.59c3.57,0,5.94-2.38,5.94-5.94v-60.58c0-3.56-2.38-5.94-5.94-5.94h-85.59
	c-3.57,0-5.94,2.38-5.94,5.94v60.58C983.3,593.94,986.27,596.91,989.24,596.91z M995.19,536.33h73.71v48.7h-73.71V536.33z"/>
<path class="st0" d="M977.36,652.74h180.7c3.57,0,5.94-2.38,5.94-5.94c0-3.56-2.38-5.94-5.94-5.94h-180.7
	c-3.57,0-5.94,2.38-5.94,5.94C971.41,650.36,973.79,652.74,977.36,652.74z"/>
<path class="st0" d="M977.36,696.1h180.7c3.57,0,5.94-2.38,5.94-5.94c0-3.56-2.38-5.94-5.94-5.94h-180.7
	c-3.57,0-5.94,2.38-5.94,5.94C971.41,693.72,973.79,696.1,977.36,696.1z"/>
<path class="st0" d="M977.36,739.46h180.7c3.57,0,5.94-2.38,5.94-5.94s-2.38-5.94-5.94-5.94h-180.7c-3.57,0-5.94,2.38-5.94,5.94
	S973.79,739.46,977.36,739.46z"/>
<path class="st0" d="M1163.4,776.87c0-3.56-2.38-5.94-5.94-5.94h-180.1c-3.57,0-5.94,2.38-5.94,5.94c0,3.56,2.38,5.94,5.94,5.94
	h180.7C1161.03,782.81,1163.4,779.84,1163.4,776.87z"/>
<path class="st0" d="M1183.02,814.29h-89.76c-3.57,0-5.94,2.38-5.94,5.94c0,3.56,2.38,5.94,5.94,5.94h89.16
	c3.57,0,5.94-2.38,5.94-5.94C1188.37,816.67,1185.99,814.29,1183.02,814.29z"/>
</svg>
