<?xml version="1.0" encoding="utf-8"?>
<!-- Generator: Adobe Illustrator 23.0.1, SVG Export Plug-In . SVG Version: 6.00 Build 0)  -->
<svg version="1.1" id="Layer_1" xmlns="http://www.w3.org/2000/svg" xmlns:xlink="http://www.w3.org/1999/xlink" x="0px" y="0px"
	 viewBox="0 0 1920 1080" style="enable-background:new 0 0 1920 1080;" xml:space="preserve">
<style type="text/css">
	.st0{fill:#FFFFFF;}
</style>
<g>
	<path class="st0" d="M1098.17,491.93c-20.6,0-37.31,16.7-37.31,37.31c0,20.6,16.7,37.31,37.31,37.31
		c20.6-0.02,37.29-16.71,37.31-37.31C1135.48,508.63,1118.78,491.93,1098.17,491.93z M1098.17,554.11
		c-13.74,0-24.87-11.14-24.87-24.87c0-13.74,11.14-24.87,24.87-24.87c13.74,0,24.87,11.14,24.87,24.87
		C1123.04,542.97,1111.91,554.11,1098.17,554.11z"/>
	<path class="st0" d="M1123.04,572.76h-1.47l-1.31,0.65c-13.91,6.93-30.27,6.93-44.18,0l-1.31-0.65h-1.47
		c-17.16,0.02-31.07,13.93-31.09,31.09v37.31c0,10.3,8.35,18.65,18.65,18.65h74.61c10.3,0,18.65-8.35,18.65-18.65v-37.31
		C1154.11,586.69,1140.2,572.78,1123.04,572.76z M1141.7,641.16c0,3.43-2.78,6.22-6.22,6.22h-74.61c-3.43,0-6.22-2.78-6.22-6.22
		v-37.31c0-9.79,7.57-17.91,17.33-18.6c16.61,7.71,35.78,7.71,52.39,0c9.76,0.69,17.33,8.82,17.33,18.6V641.16z"/>
	<path class="st0" d="M1228.75,697.12c-20.6,0-37.31,16.7-37.31,37.31c0,20.6,16.7,37.31,37.31,37.31c20.6,0,37.31-16.7,37.31-37.31
		C1266.03,713.83,1249.34,697.14,1228.75,697.12z M1228.75,759.3c-13.74,0-24.87-11.14-24.87-24.87c0-13.74,11.14-24.87,24.87-24.87
		c13.74,0,24.87,11.14,24.87,24.87C1253.62,748.16,1242.48,759.3,1228.75,759.3z"/>
	<path class="st0" d="M1253.62,777.95h-1.47l-1.31,0.62c-13.91,6.93-30.27,6.93-44.18,0l-1.31-0.62h-1.47
		c-17.16,0.02-31.07,13.93-31.09,31.09v37.31c0,10.3,8.35,18.65,18.65,18.65h74.61c10.3,0,18.65-8.35,18.65-18.65v-37.31
		C1284.69,791.88,1270.78,777.97,1253.62,777.95z M1272.27,846.35c0,3.43-2.78,6.22-6.22,6.22h-74.61c-3.43,0-6.22-2.78-6.22-6.22
		v-37.31c0-9.79,7.57-17.91,17.33-18.6c16.61,7.71,35.78,7.71,52.39,0c9.76,0.69,17.33,8.82,17.33,18.6V846.35z"/>
	<path class="st0" d="M967.59,697.12c-20.6,0-37.31,16.7-37.31,37.31c0,20.6,16.7,37.31,37.31,37.31c20.6,0,37.31-16.7,37.31-37.31
		C1004.88,713.83,988.19,697.14,967.59,697.12z M967.59,759.3c-13.74,0-24.87-11.14-24.87-24.87c0-13.74,11.14-24.87,24.87-24.87
		c13.74,0,24.87,11.14,24.87,24.87C992.47,748.16,981.33,759.3,967.59,759.3z"/>
	<path class="st0" d="M992.47,777.95H991l-1.31,0.62c-13.91,6.93-30.27,6.93-44.18,0l-1.31-0.62h-1.47
		c-17.16,0.02-31.07,13.93-31.09,31.09v37.31c0,10.3,8.35,18.65,18.65,18.65h74.61c10.3,0,18.65-8.35,18.65-18.65v-37.31
		C1023.54,791.88,1009.63,777.97,992.47,777.95z M1011.12,846.35c0,3.43-2.78,6.22-6.22,6.22h-74.61c-3.43,0-6.22-2.78-6.22-6.22
		v-37.31c0-9.79,7.57-17.91,17.33-18.6c16.61,7.71,35.78,7.71,52.39,0c9.76,0.69,17.33,8.82,17.33,18.6V846.35z"/>
	<path class="st0" d="M1159.86,807.7c0-0.01-0.01-0.01-0.01-0.02c-1.35-3.16-5-4.63-8.16-3.28c-28.08,11.77-59.26,13.91-88.69,6.11
		l5.82-1.71c3.3-0.97,5.19-4.42,4.22-7.72c-0.97-3.3-4.42-5.19-7.72-4.22l-24.87,7.29c-0.09,0-0.16,0.11-0.25,0.14
		c-0.58,0.21-1.12,0.51-1.6,0.89c-0.22,0.12-0.42,0.25-0.62,0.39c-0.66,0.59-1.18,1.31-1.52,2.11c-0.34,0.81-0.5,1.69-0.47,2.57
		c0.15,0.84,0.36,1.67,0.62,2.49c0.04,0.09,0,0.19,0.07,0.27l12.44,23.8c1.59,3.05,5.35,4.23,8.39,2.64
		c3.05-1.59,4.23-5.35,2.64-8.39l-5.06-9.68c33.43,10.05,69.33,8.1,101.47-5.52C1159.72,814.51,1161.2,810.86,1159.86,807.7z"/>
	<path class="st0" d="M1264.23,655.41c-2.43-2.43-6.36-2.43-8.79,0l-8.8,8.8c-5.15-54.46-39.73-101.72-90.07-123.11
		c-3.16-1.35-6.81,0.12-8.16,3.28c-1.35,3.16,0.12,6.81,3.28,8.16c45.17,19.2,76.56,61.14,82.24,109.89l-7.01-7.01
		c-2.47-2.39-6.41-2.32-8.79,0.15c-2.33,2.41-2.33,6.23,0,8.64l18.65,18.65c2.42,2.43,6.36,2.44,8.79,0.01c0,0,0.01-0.01,0.01-0.01
		l18.65-18.65C1266.67,661.77,1266.66,657.84,1264.23,655.41z"/>
	<path class="st0" d="M1048.25,545.77c-0.02-0.36-0.07-0.72-0.16-1.08c0-0.06-0.07-0.09-0.09-0.16c-0.02-0.06,0-0.11,0-0.16
		c-0.17-0.3-0.36-0.59-0.58-0.86c-0.2-0.36-0.44-0.71-0.71-1.03c-0.37-0.33-0.78-0.6-1.21-0.83c-0.22-0.19-0.45-0.35-0.7-0.5
		l-24.87-11.36c-3.18-1.3-6.81,0.21-8.11,3.39c-1.23,3,0.05,6.45,2.95,7.91l12.88,5.89c-48.48,25.94-78.73,76.48-78.69,131.46
		c0,3.43,2.78,6.22,6.22,6.22s6.22-2.78,6.22-6.22c-0.03-48.42,25.57-93.23,67.3-117.79l-4.5,9.4c-1.48,3.09-0.18,6.8,2.9,8.29
		c0.84,0.41,1.76,0.62,2.69,0.62c2.39,0,4.56-1.37,5.6-3.53l12.44-25.95c0-0.06,0-0.13,0.05-0.19c0.16-0.43,0.27-0.87,0.34-1.32
		c0.11-0.34,0.19-0.68,0.24-1.03C1048.41,546.56,1048.35,546.16,1048.25,545.77z"/>
</g>
</svg>
