<?xml version="1.0" encoding="utf-8"?>
<!-- Generator: Adobe Illustrator 23.0.1, SVG Export Plug-In . SVG Version: 6.00 Build 0)  -->
<svg version="1.1" id="Layer_1" xmlns="http://www.w3.org/2000/svg" xmlns:xlink="http://www.w3.org/1999/xlink" x="0px" y="0px"
	 viewBox="0 0 1920 1080" style="enable-background:new 0 0 1920 1080;" xml:space="preserve">
<style type="text/css">
	.st0{fill:#BABABA;}
</style>
<path class="st0" d="M951.81,629.35h27.87v13.94h-27.87V629.35z"/>
<path class="st0" d="M1321.1,601.48c11.52,0,20.9-9.38,20.9-20.9V510.9c0-11.52-9.38-20.9-20.9-20.9h-97.55
	c-11.52,0-20.9,9.38-20.9,20.9v69.68c0,11.52,9.38,20.9,20.9,20.9h20.9v13.94h-13.94v13.94h34.84v69.68h-28.76
	c-5.56-5.43-12.4-9.58-20.07-11.87c0.03-0.7,0.05-1.38,0.05-2.07c0-30.74-25.01-55.74-55.74-55.74c-19.07,0-36.79,9.92-46.95,25.79
	c-7.15-3.21-14.88-4.89-22.73-4.89c-23.13,0-43.95,14.57-52.09,35.95c-5.29,1.14-10.23,3.17-14.71,5.85h-51.65v-20.9h27.87
	c11.52,0,20.9-9.38,20.9-20.9V510.9c0-11.52-9.38-20.9-20.9-20.9H930.9c-11.52,0-20.9,9.38-20.9,20.9v139.35
	c0,11.52,9.38,20.9,20.9,20.9h27.87V706h50.77c-2.96,4.23-5.26,8.9-6.77,13.94h-30.06v76.65h-27.87c-11.52,0-20.9,9.38-20.9,20.9
	v62.71H910v20.9c0,11.52,9.38,20.9,20.9,20.9h111.48c11.52,0,20.9-9.38,20.9-20.9v-20.9h-13.94v-62.71c0-11.52-9.38-20.9-20.9-20.9
	h-41.81v-62.71h13.94c0,26.89,21.89,48.77,48.77,48.77h153.29c24.52,0,44.82-18.21,48.22-41.81h28.43v55.74h-48.77V922H1342V796.58
	h-48.77V726.9h-42.39c-0.72-4.91-2.23-9.57-4.33-13.94h32.79v-83.61h34.84v-13.94h-13.94v-13.94H1321.1z M1007.55,601.48h-83.61
	v-69.68h83.61V601.48z M930.9,503.94h69.68c3.84,0,6.97,3.12,6.97,6.97v6.97h-83.61v-6.97C923.94,507.06,927.06,503.94,930.9,503.94
	z M923.94,650.26v-34.84h83.61v34.84c0,3.84-3.12,6.97-6.97,6.97H930.9C927.06,657.23,923.94,654.1,923.94,650.26z M1049.35,901.1
	c0,3.84-3.12,6.97-6.97,6.97H930.9c-3.84,0-6.97-3.12-6.97-6.97v-6.97h125.42V901.1z M1035.42,817.48v62.71h-97.55v-62.71
	c0-3.84,3.12-6.97,6.97-6.97h83.61C1032.3,810.52,1035.42,813.64,1035.42,817.48z M1244.45,908.06v-41.81h83.61v41.81H1244.45z
	 M1328.06,852.32h-83.61v-41.81h83.61V852.32z M1202.65,768.71h-153.29c-19.21,0-34.84-15.63-34.84-34.84
	c0-17.61,13.18-32.47,30.66-34.56l4.57-0.55l1.29-4.42c5.15-17.75,21.66-30.14,40.13-30.14c7.69,0,15.25,2.16,21.87,6.24l6.65,4.1
	l3.32-7.09c6.86-14.68,21.71-24.16,37.84-24.16c23.06,0,41.81,18.75,41.81,41.81c0,1.92-0.17,3.97-0.55,6.44l-1.05,6.89l6.89,1.04
	c16.85,2.57,29.55,17.36,29.55,34.39C1237.48,753.08,1221.85,768.71,1202.65,768.71z M1223.55,503.94h97.55
	c3.84,0,6.97,3.12,6.97,6.97v48.77h-111.48V510.9C1216.58,507.06,1219.7,503.94,1223.55,503.94z M1216.58,580.58v-6.97h111.48v6.97
	c0,3.84-3.12,6.97-6.97,6.97h-97.55C1219.7,587.55,1216.58,584.43,1216.58,580.58z M1286.26,615.42h-27.87v-13.94h27.87V615.42z"/>
<path class="st0" d="M1258.39,824.45h13.94v13.94h-13.94V824.45z"/>
<path class="st0" d="M1300.19,880.19h13.94v13.94h-13.94V880.19z"/>
<path class="st0" d="M1286.26,824.45h27.87v13.94h-27.87V824.45z"/>
<path class="st0" d="M1258.39,880.19h27.87v13.94h-27.87V880.19z"/>
</svg>
